<svg viewBox="0 0 200 200" xmlns="http://www.w3.org/2000/svg">
  <path d="M 100 15 A 85 85 0 1 1 15 100" fill="none" stroke="#6B7280" stroke-width="8" stroke-linecap="round"/>
  <circle cx="100" cy="100" r="45" fill="none" stroke="#F9FAFB" stroke-width="6"/>
  <circle cx="100" cy="100" r="22" fill="#F9FAFB"/>
  <line x1="100" y1="78" x2="100" y2="45" stroke="#F9FAFB" stroke-width="5"/><circle cx="100" cy="38" r="12" fill="#F9FAFB"/>
  <line x1="118" y1="84" x2="145" y2="60" stroke="#F9FAFB" stroke-width="5"/><circle cx="152" cy="52" r="10" fill="#F9FAFB"/>
  <line x1="122" y1="100" x2="155" y2="100" stroke="#F9FAFB" stroke-width="5"/><circle cx="165" cy="100" r="12" fill="#F9FAFB"/>
  <line x1="118" y1="116" x2="145" y2="140" stroke="#F9FAFB" stroke-width="5"/><circle cx="152" cy="148" r="10" fill="#F9FAFB"/>
  <line x1="100" y1="122" x2="100" y2="155" stroke="#F9FAFB" stroke-width="5"/><circle cx="100" cy="165" r="12" fill="#F9FAFB"/>
  <line x1="82" y1="116" x2="55" y2="140" stroke="#F9FAFB" stroke-width="5"/><circle cx="48" cy="148" r="10" fill="#F9FAFB"/>
  <line x1="78" y1="100" x2="45" y2="100" stroke="#F9FAFB" stroke-width="5"/><circle cx="35" cy="100" r="12" fill="#F9FAFB"/>
  <line x1="82" y1="84" x2="55" y2="60" stroke="#F9FAFB" stroke-width="5"/><circle cx="48" cy="52" r="10" fill="#F9FAFB"/>
</svg>
